<?xml version="1.0" encoding="utf-8"?>
<!-- Generator: Adobe Illustrator 25.4.1, SVG Export Plug-In . SVG Version: 6.00 Build 0)  -->
<svg version="1.1" id="Layer_1" xmlns="http://www.w3.org/2000/svg" xmlns:xlink="http://www.w3.org/1999/xlink" x="0px" y="0px"
	 viewBox="0 0 400 400" style="enable-background:new 0 0 400 400;" xml:space="preserve">
<style type="text/css">
	.st0{fill-rule:evenodd;clip-rule:evenodd;fill:#9AB9A4;}
	.st1{fill-rule:evenodd;clip-rule:evenodd;fill:#005939;}
</style>
<g>
	<path class="st0" d="M361,202.22c5.47,5.03,7.88,11.44,6.71,17.04c-3.26,15.46-8.82,21.69-16.46,32l-0.26-0.18
		c-14.05,18.45-44.48,35.13-73.67,44.82c-22.43,7.44-44.02,8.62-57.16,7.52c-0.08,0.32,0,2.21,0.58,2.53
		c16.08,1.45,37.47-0.36,60.08-8.02c26.67-9.02,51.64-22.29,71.72-44.6c1.27,3.96,1.13,9.55-0.44,12.74
		c-7.28,14.95-32.62,37.47-53.29,49.33c-51.22,27.66-135.43,30.63-198.43-14.99c-39.01-28.26-72.86-77.65-61.81-138.33
		c10.81-59.38,90.69-98.21,152.38-95.42l-0.44,3.3c-49.08-3.2-117,46.51-109.79,95.66c4.02,27.36,14.89,44.66,35.09,58.01
		c43.96,29.02,93.69,27.46,151.88,16.8c8.44,2.17,2.45,15.28-1.43,18.69c-3.02,2.67-7.04,5.85-11.1,6.69
		c-8.78,1.85-16.66,2.35-27.98,3.56C235.39,272.12,325.66,274.41,361,202.22z"/>
	<path class="st1" d="M202.83,87.64c11.1,0,20.1,9,20.1,20.1s-9,20.1-20.1,20.1c-11.1,0-20.12-9-20.12-20.1
		S191.72,87.64,202.83,87.64L202.83,87.64z M202.15,218.6c0.94,0,1.87,0,2.79,0c6.97,0.04,11.6,11.9,18.63,27.92
		c6.27-0.52,12.64-1.23,19.14-2.11c-2.41-8.76-4.82-17.04-6.55-24.84c-4.28-19.42-5.95-37.41-3.04-48.24
		c2.21-8.22,11.14-23.01,20.86-41.37c15.32-28.94,18.85-51.7,20.46-68.58c0.18-1.87-4.12-2.25-4.76-0.36
		c-11.72,34.61-15.7,42.61-28.56,56.16c-22.87,24.12-53.59,24.12-75.19,0c-9.81-10.93-14.61-18.01-21.93-37.39l0,0
		c-0.86-2.29-1.75-4.76-2.71-7.42c-1.23-3.44-2.53-7.2-3.92-11.36c-0.64-1.87-4.92-1.49-4.74,0.36c0.38,4,0.86,8.32,1.61,12.98
		c0.46,2.99,1.05,6.13,1.73,9.43l0,0c2.81,13.13,7.78,28.5,17.15,46.17c9.71,18.35,18.65,33.15,20.84,41.37
		c2.89,10.83,1.23,28.84-3.04,48.24c-1.69,7.62-4.02,15.7-6.37,24.24c6.19,1.29,12.5,2.21,18.91,2.81
		C190.53,230.56,195.15,218.64,202.15,218.6z"/>
</g>
</svg>
